<svg preserveAspectRatio="none" width="100%" height="100%" overflow="visible" style="display: block;" viewBox="0 0 49.0909 54.5378" fill="none" xmlns="http://www.w3.org/2000/svg">
<g id="Group">
<path id="Vector" d="M35.4053 10.7578L19.9495 5.78741L11.5748 10.5535L26.4859 15.3877L40.7161 20.0176L34.384 49.9079L42.7587 45.0737L49.0908 15.1834L35.4053 10.7578ZM35.0649 0L33.8393 0.680871C33.8393 0.680871 34.384 1.70218 33.3627 2.31496L27.2349 5.85549L34.9287 8.30663L36.2904 7.48958C37.3798 6.8768 37.9245 7.76193 37.9926 7.83002L39.2182 7.14915L35.0649 0ZM28.6647 18.9963L25.6688 20.7666L28.0519 24.9199L16.409 31.5924L18.4516 35.133L30.0945 28.4604L32.4776 32.6137L35.5415 30.8435L28.6647 18.9963ZM21.3113 46.2312L8.30663 23.7624L21.5836 16.0686L13.7536 13.5493L0 21.5155L19.0644 54.5378L32.8861 46.5716L34.5883 38.5373L21.3113 46.2312Z" fill="url(#paint0_linear_9504_464)"/>
</g>
<defs>
<linearGradient id="paint0_linear_9504_464" x1="-5.92358" y1="27.1024" x2="62.1636" y2="27.1024" gradientUnits="userSpaceOnUse">
<stop stop-color="#1C2E61"/>
<stop offset="0.22" stop-color="#1C2E61"/>
<stop offset="0.7" stop-color="#005B97"/>
<stop offset="1" stop-color="#007597"/>
</linearGradient>
</defs>
</svg>
